<svg id="Layer_1" enable-background="new 0 0 509.96 509.96" height="512" viewBox="0 0 509.96 509.96" width="512" xmlns="http://www.w3.org/2000/svg"><g id="XMLID_4085_"><path id="XMLID_4094_" d="m404.837 240.086c2.056-53.686-17.018-108.52-59.189-150.69-41.091-41.092-86.339-50.844-89.006-51.997l-.077.015c-105.135-29.055-177.7 35.205-179.072 35.816-96.118 75.475-103.549 217.217-18.222 302.543 8.848 8.849 18.292 16.683 28.189 23.531v-4.219c0-45.446 26.499-84.815 64.855-103.479-16.72-14.227-27.355-35.399-27.355-59.021 0-42.734 34.766-77.5 77.5-77.5 42.732 0 77.5 34.766 77.5 77.5 0 23.621-10.637 44.795-27.356 59.021 11.869 5.774 22.599 13.536 31.763 22.843 22.231-44.035 67.877-74.316 120.47-74.363z"/><path id="XMLID_4201_" d="m272.812 347.434c-15.305-22.523-41.127-37.349-70.35-37.349-46.871 0-85.002 38.131-85.002 85v21.373c50.911 23.523 109.263 24.531 160.383 4.086-5.098-14.212-7.883-29.516-7.883-45.459 0-9.474.986-18.722 2.852-27.651z"/><circle id="XMLID_4202_" cx="202.46" cy="232.585" r="47.5"/><path id="XMLID_4206_" d="m404.96 270.085c-57.99 0-105 47.01-105 105 0 57.989 47.01 105 105 105 57.989 0 105-47.011 105-105 0-57.99-47.01-105-105-105zm-10.607 147.426-42.426-42.427 21.213-21.213 21.213 21.214 42.427-42.427 21.213 21.213z"/></g></svg>